<?xml version="1.0" encoding="utf-8"?>
<!-- Generator: Adobe Illustrator 22.0.0, SVG Export Plug-In . SVG Version: 6.00 Build 0)  -->
<svg version="1.1" id="Layer_2" xmlns="http://www.w3.org/2000/svg" xmlns:xlink="http://www.w3.org/1999/xlink" x="0px" y="0px"
	 viewBox="0 0 160.6 56.8" style="enable-background:new 0 0 160.6 56.8;" xml:space="preserve">
<style type="text/css">
	.st0{fill:#FFFFFF;}
	.st1{fill:#CCA969;}
</style>
<g>
	<path class="st0" d="M35.2,27.3c-0.1,7.4-4.6,14.8-14.7,14.8c-10.1,0-14.8-7.3-14.8-14.8c0-7.5,4.8-15.1,14.8-15.1
		C30.3,12.2,35.2,19.8,35.2,27.3z M11,27.4c0.1,4.7,2.7,9.8,9.4,9.8s9.3-5.1,9.4-9.8c0.1-4.8-2.6-10.2-9.4-10.2S10.9,22.6,11,27.4z"
		/>
</g>
<g>
	<path class="st0" d="M50.3,29.5H35l-2.1,5.4H27c0,0,1.1-0.7,1.9-2.5c0.9-1.8,0.8-3.6,0.8-3.6L39.9,6.2h5.9l12.9,28.7h-5.9
		L50.3,29.5z M42.8,12.2l-5.3,12.2h10.7L42.8,12.2z"/>
</g>
<g>
	<path class="st1" d="M29.6,29.5h-9.1v-5c8.3,0,15.3,0,23.6,0v5H35v20.9h-5.4V29.5z"/>
</g>
<g>
	<path class="st0" d="M75.9,23.4c0,0.8-0.1,1.5-0.3,2.1c-0.2,0.6-0.6,1.2-1,1.6c-0.4,0.4-0.9,0.8-1.5,1c-0.6,0.2-1.2,0.4-1.9,0.4
		c-0.7,0-1.3-0.1-1.9-0.4c-0.6-0.2-1.1-0.6-1.5-1c-0.4-0.4-0.7-1-1-1.6c-0.2-0.6-0.3-1.3-0.3-2.1c0-0.8,0.1-1.5,0.3-2.1
		c0.2-0.6,0.6-1.2,1-1.6c0.4-0.4,0.9-0.8,1.5-1c0.6-0.2,1.2-0.4,1.9-0.4c0.7,0,1.3,0.1,1.9,0.4c0.6,0.2,1.1,0.6,1.5,1s0.7,1,1,1.6
		S75.9,22.6,75.9,23.4z M75.2,23.4c0-0.7-0.1-1.3-0.3-1.9c-0.2-0.5-0.5-1-0.8-1.4s-0.8-0.7-1.3-0.9c-0.5-0.2-1-0.3-1.6-0.3
		c-0.6,0-1.1,0.1-1.6,0.3c-0.5,0.2-0.9,0.5-1.3,0.9c-0.4,0.4-0.6,0.8-0.8,1.4c-0.2,0.6-0.3,1.2-0.3,1.9c0,0.7,0.1,1.3,0.3,1.9
		c0.2,0.5,0.5,1,0.8,1.4c0.4,0.4,0.8,0.7,1.3,0.9c0.5,0.2,1,0.3,1.6,0.3c0.6,0,1.1-0.1,1.6-0.3c0.5-0.2,0.9-0.5,1.3-0.9
		c0.3-0.4,0.6-0.8,0.8-1.4C75.1,24.7,75.2,24.1,75.2,23.4z"/>
	<path class="st0" d="M78,18.4h0.6c0.1,0,0.1,0,0.2,0.1s0.1,0.1,0.1,0.1l3.4,8.2c0.1,0.2,0.2,0.4,0.2,0.7c0.1-0.3,0.1-0.5,0.2-0.7
		l3.4-8.2c0-0.1,0.1-0.1,0.1-0.1c0,0,0.1-0.1,0.2-0.1h0.6l-4.1,9.9h-0.6L78,18.4z"/>
	<path class="st0" d="M95.7,18.4V19h-5.2v4h4.3v0.6h-4.3v4.1h5.2v0.6h-5.9v-9.9H95.7z"/>
	<path class="st0" d="M100.4,23.8v4.5h-0.7v-9.9h2.5c1.1,0,2,0.2,2.6,0.7c0.6,0.4,0.8,1.1,0.8,1.9c0,0.4-0.1,0.7-0.2,1
		s-0.3,0.6-0.6,0.8s-0.5,0.4-0.9,0.6c-0.3,0.2-0.7,0.3-1.2,0.3c0.1,0.1,0.2,0.2,0.3,0.3l3.4,4.3h-0.6c-0.1,0-0.1,0-0.2,0
		s-0.1-0.1-0.2-0.1l-3.2-4c-0.1-0.1-0.2-0.2-0.3-0.2s-0.2-0.1-0.4-0.1H100.4z M100.4,23.3h1.7c0.4,0,0.8-0.1,1.2-0.2
		c0.3-0.1,0.6-0.3,0.9-0.5s0.4-0.4,0.5-0.7s0.2-0.6,0.2-0.9c0-0.7-0.2-1.2-0.7-1.6c-0.5-0.3-1.1-0.5-2-0.5h-1.8V23.3z"/>
	<path class="st0" d="M115.8,18.4V19h-3.5v9.3h-0.7V19h-3.5v-0.6H115.8z"/>
	<path class="st0" d="M126.6,28.3h-0.7v-4.7h-6.2v4.7H119v-9.9h0.7V23h6.2v-4.6h0.7V28.3z"/>
	<path class="st0" d="M131.9,28.3h-0.7v-9.9h0.7V28.3z"/>
	<path class="st0" d="M137,18.4c0,0,0.1,0.1,0.1,0.1l6.4,8.6c0-0.1,0-0.3,0-0.4v-8.3h0.6v9.9h-0.3c-0.1,0-0.2,0-0.3-0.1l-6.4-8.6
		c0,0.1,0,0.3,0,0.4v8.3h-0.6v-9.9h0.4C136.9,18.4,137,18.4,137,18.4z"/>
	<path class="st0" d="M149.4,23h0.6c0.1,0,0.2,0,0.2,0s0.1,0,0.2,0c0.1,0,0.1,0,0.2-0.1c0,0,0.1-0.1,0.1-0.1l4-4.1
		c0.1-0.1,0.1-0.1,0.2-0.2c0.1,0,0.1,0,0.2,0h0.6l-4.3,4.4c-0.1,0.1-0.2,0.2-0.2,0.2c-0.1,0.1-0.1,0.1-0.2,0.1
		c0.1,0,0.2,0.1,0.3,0.1s0.2,0.1,0.2,0.2l4.6,4.8h-0.6c-0.1,0-0.2,0-0.3-0.1c-0.1,0-0.1-0.1-0.2-0.1l-4.2-4.3
		c-0.1-0.1-0.1-0.1-0.1-0.1c0,0-0.1-0.1-0.1-0.1c-0.1,0-0.1,0-0.2-0.1c-0.1,0-0.2,0-0.3,0h-0.6v4.8h-0.7v-9.9h0.7V23z"/>
	<path class="st0" d="M74.6,45.1H74c-0.1,0-0.1,0-0.2-0.1s-0.1-0.1-0.1-0.1l-1.2-2.9h-4.9l-1.2,2.9c0,0.1-0.1,0.1-0.1,0.1
		c0,0-0.1,0.1-0.2,0.1h-0.5l4.1-9.9h0.7L74.6,45.1z M67.9,41.5h4.4l-2-5c0-0.1-0.1-0.2-0.1-0.3c0-0.1-0.1-0.2-0.1-0.3
		c0,0.1-0.1,0.2-0.1,0.3c0,0.1-0.1,0.2-0.1,0.3L67.9,41.5z"/>
	<path class="st0" d="M84.5,43.5c0,0,0.1,0,0.1,0l0.3,0.3c-0.2,0.2-0.4,0.4-0.7,0.6c-0.2,0.2-0.5,0.3-0.8,0.4s-0.6,0.2-0.9,0.3
		s-0.7,0.1-1.1,0.1c-0.7,0-1.3-0.1-1.9-0.4c-0.6-0.2-1.1-0.6-1.5-1c-0.4-0.4-0.7-1-1-1.6c-0.2-0.6-0.3-1.3-0.3-2.1
		c0-0.8,0.1-1.4,0.4-2.1c0.2-0.6,0.6-1.2,1-1.6c0.4-0.4,0.9-0.8,1.5-1c0.6-0.2,1.3-0.4,2-0.4c0.4,0,0.7,0,1,0.1s0.6,0.1,0.8,0.2
		c0.3,0.1,0.5,0.2,0.7,0.4c0.2,0.1,0.5,0.3,0.7,0.5l-0.2,0.3c0,0.1-0.1,0.1-0.2,0.1c0,0-0.1,0-0.2-0.1s-0.1-0.1-0.2-0.2
		c-0.1-0.1-0.2-0.2-0.4-0.2c-0.1-0.1-0.3-0.2-0.5-0.2c-0.2-0.1-0.4-0.1-0.7-0.2c-0.3,0-0.5-0.1-0.9-0.1c-0.6,0-1.2,0.1-1.7,0.3
		c-0.5,0.2-0.9,0.5-1.3,0.9c-0.4,0.4-0.6,0.9-0.9,1.4c-0.2,0.5-0.3,1.2-0.3,1.8c0,0.7,0.1,1.3,0.3,1.9c0.2,0.6,0.5,1,0.8,1.4
		c0.4,0.4,0.8,0.7,1.3,0.9c0.5,0.2,1,0.3,1.6,0.3c0.4,0,0.7,0,0.9-0.1c0.3,0,0.5-0.1,0.8-0.2c0.2-0.1,0.5-0.2,0.7-0.3
		c0.2-0.1,0.4-0.3,0.6-0.5C84.4,43.5,84.4,43.5,84.5,43.5C84.5,43.5,84.5,43.5,84.5,43.5z"/>
	<path class="st0" d="M96,45.1h-0.6c-0.1,0-0.1,0-0.2-0.1s-0.1-0.1-0.1-0.1L94,42.1h-4.9L88,44.9c0,0.1-0.1,0.1-0.1,0.1
		c0,0-0.1,0.1-0.2,0.1h-0.5l4.1-9.9H92L96,45.1z M89.4,41.5h4.4l-2-5c0-0.1-0.1-0.2-0.1-0.3c0-0.1-0.1-0.2-0.1-0.3
		c0,0.1-0.1,0.2-0.1,0.3c0,0.1-0.1,0.2-0.1,0.3L89.4,41.5z"/>
	<path class="st0" d="M107.3,40.2c0,0.8-0.1,1.5-0.3,2.1s-0.6,1.1-1,1.6s-0.9,0.8-1.5,1c-0.6,0.2-1.2,0.3-1.9,0.3H99v-9.9h3.6
		c0.7,0,1.3,0.1,1.9,0.3c0.6,0.2,1.1,0.6,1.5,1c0.4,0.4,0.7,1,1,1.6S107.3,39.4,107.3,40.2z M106.6,40.2c0-0.7-0.1-1.3-0.3-1.8
		c-0.2-0.5-0.5-1-0.8-1.4s-0.8-0.7-1.3-0.9c-0.5-0.2-1-0.3-1.6-0.3h-2.9v8.7h2.9c0.6,0,1.1-0.1,1.6-0.3s0.9-0.5,1.3-0.9
		c0.3-0.4,0.6-0.8,0.8-1.4C106.5,41.5,106.6,40.9,106.6,40.2z"/>
	<path class="st0" d="M117,35.2v0.6h-5.2v4h4.3v0.6h-4.3v4.1h5.2v0.6H111v-9.9H117z"/>
	<path class="st0" d="M125.7,42.7c0-0.1,0.1-0.1,0.1-0.2c0-0.1,0.1-0.1,0.1-0.2l3.9-6.9c0-0.1,0.1-0.1,0.1-0.1c0,0,0.1,0,0.2,0h0.5
		v9.9h-0.6v-8.4c0-0.1,0-0.2,0-0.4l-3.9,6.9c-0.1,0.1-0.2,0.2-0.3,0.2h-0.1c-0.1,0-0.2-0.1-0.3-0.2l-4-6.9c0,0.1,0,0.3,0,0.4v8.4
		h-0.6v-9.9h0.5c0.1,0,0.1,0,0.2,0c0,0,0.1,0.1,0.1,0.1l4,6.9C125.5,42.4,125.6,42.5,125.7,42.7z"/>
	<path class="st0" d="M137.9,41v4.1h-0.7V41l-3.7-5.8h0.6c0.1,0,0.1,0,0.2,0c0,0,0.1,0.1,0.1,0.1l2.8,4.6c0.1,0.1,0.1,0.2,0.2,0.3
		c0,0.1,0.1,0.2,0.1,0.3c0-0.1,0.1-0.2,0.1-0.3c0-0.1,0.1-0.2,0.2-0.3l2.8-4.6c0-0.1,0.1-0.1,0.1-0.1c0,0,0.1,0,0.2,0h0.6L137.9,41z
		"/>
</g>
</svg>
